<svg width="21" height="12" viewBox="0 0 21 12" fill="none" xmlns="http://www.w3.org/2000/svg">
<path d="M1 5.25016C0.585786 5.25016 0.25 5.58595 0.25 6.00016C0.25 6.41438 0.585787 6.75016 1 6.75016L1 5.25016ZM12 6.75016C12.4142 6.75016 12.75 6.41437 12.75 6.00016C12.75 5.58595 12.4142 5.25016 12 5.25016L12 6.75016ZM12 3.13552L11.25 3.13552V3.13552H12ZM15.22 1.55071L15.6775 0.956404L15.6775 0.956404L15.22 1.55071ZM15.22 10.4496L15.6775 11.0439L15.6775 11.0439L15.22 10.4496ZM12 8.86481L12.75 8.86481V8.86481H12ZM18.9413 7.58497L18.4838 6.99067L18.4838 6.99067L18.9413 7.58497ZM18.9413 4.41535L18.4838 5.00966L18.4838 5.00966L18.9413 4.41535ZM1 6.75016L12 6.75016L12 5.25016L1 5.25016L1 6.75016ZM18.4838 6.99067L14.7625 9.85532L15.6775 11.0439L19.3988 8.17928L18.4838 6.99067ZM12.75 8.86481V3.13552H11.25V8.86481H12.75ZM14.7625 2.14501L18.4838 5.00966L19.3988 3.82105L15.6775 0.956404L14.7625 2.14501ZM12.75 3.13552C12.75 2.09822 13.9405 1.51227 14.7625 2.14501L15.6775 0.956404C13.8692 -0.435638 11.25 0.853461 11.25 3.13552L12.75 3.13552ZM14.7625 9.85531C13.9405 10.4881 12.75 9.90211 12.75 8.86481L11.25 8.86481C11.25 11.1469 13.8692 12.436 15.6775 11.0439L14.7625 9.85531ZM19.3988 8.17928C20.8288 7.07845 20.8288 4.92188 19.3988 3.82105L18.4838 5.00966C19.1338 5.51003 19.1338 6.49029 18.4838 6.99067L19.3988 8.17928Z" fill="white"/>
</svg>
