<svg width="28" height="41" viewBox="0 0 28 41" fill="none" xmlns="http://www.w3.org/2000/svg">
<rect width="26.5446" height="39.9311" transform="translate(0.960938 0.753876)" fill="black"/>
<path d="M5.49985 9.50003C11.8998 5.9 17.4999 2.5 20.4999 1C22.9999 -0.500001 24.1158 5.19132 21.9999 9.00003C19.8839 12.8087 13.9999 15 13.9999 15C13.9999 15 26.9999 12 27.4999 23.5C27.6303 26.5 25.4999 30 23.9999 31C22.4999 32 9.49988 39.75 7.99988 40.5C6.24162 41.3792 5.49987 39 5.49987 36C5.49987 29 13.4999 26.5 13.4999 26.5C6.49987 27.5 1.99987 25 0.999866 17.5C0.666536 15 2.49988 11.1875 5.49985 9.50003Z" fill="white"/>
</svg>
