<svg width="20" height="22" viewBox="0 0 20 22" fill="none" xmlns="http://www.w3.org/2000/svg">
<path d="M19.25 10.2491V10.25V20.75C19.25 20.8163 19.2237 20.8799 19.1768 20.9268C19.1299 20.9737 19.0663 21 19 21H13C12.9337 21 12.8701 20.9737 12.8232 20.9268C12.7763 20.8799 12.75 20.8163 12.75 20.75V15.5C12.75 15.1499 12.58 14.8416 12.3692 14.6308C12.1584 14.42 11.8501 14.25 11.5 14.25H8.5C8.15012 14.25 7.84231 14.4198 7.63201 14.6287C7.42226 14.837 7.25 15.1436 7.25 15.4925V20.75C7.25 20.8163 7.22366 20.8799 7.17678 20.9268C7.1299 20.9737 7.06631 21 7 21H1C0.933696 21 0.870108 20.9737 0.823224 20.9268C0.776341 20.8799 0.750001 20.8163 0.750001 20.75L0.750002 10.25L0.75 10.2491C0.749942 10.2163 0.756359 10.1837 0.768885 10.1533C0.781382 10.123 0.799716 10.0955 0.822844 10.0723C0.822896 10.0722 0.822948 10.0722 0.823 10.0721L9.82256 1.07255L9.823 1.0721C9.84622 1.04882 9.87381 1.03035 9.90419 1.01775C9.93456 1.00514 9.96712 0.998657 10 0.998657C10.0329 0.998657 10.0654 1.00514 10.0958 1.01775C10.1262 1.03035 10.1538 1.04882 10.177 1.0721L10.1774 1.07248L14.1464 5.04298L15 5.89693V4.6895V2.75C15 2.68369 15.0263 2.62011 15.0732 2.57322C15.1201 2.52634 15.1837 2.5 15.25 2.5H16.75C16.8163 2.5 16.8799 2.52634 16.9268 2.57322C16.9737 2.62011 17 2.68369 17 2.75V7.6895V7.89671L17.1466 8.04318L19.177 10.0721C19.1771 10.0722 19.1772 10.0723 19.1773 10.0724C19.2004 10.0956 19.2186 10.1231 19.2311 10.1533C19.2436 10.1837 19.2501 10.2163 19.25 10.2491Z" fill="white" stroke="#212529"/>
</svg>
