<svg width="19" height="18" viewBox="0 0 19 18" fill="none" xmlns="http://www.w3.org/2000/svg">
<path fill-rule="evenodd" clip-rule="evenodd" d="M11.466 4.41232C11.1414 4.15497 10.6697 4.20946 10.4123 4.53403C10.155 4.8586 10.2095 5.33034 10.534 5.58768L12.297 6.98553C13.001 7.54375 13.483 7.92734 13.8105 8.25H7V6C7 5.07099 7 4.60649 7.06156 4.21783C7.40042 2.07837 9.07836 0.400416 11.2178 0.0615578C11.6065 5.96046e-08 12.071 4.06741e-08 13 0C13.929 -4.05422e-08 14.3935 -5.96046e-08 14.7822 0.0615577C16.9216 0.400415 18.5996 2.07836 18.9384 4.21783C19 4.60649 19 5.07099 19 6V12C19 12.929 19 13.3935 18.9384 13.7822C18.5996 15.9216 16.9216 17.5996 14.7822 17.9384C14.3935 18 13.929 18 13 18C12.071 18 11.6065 18 11.2178 17.9384C9.07836 17.5996 7.40042 15.9216 7.06156 13.7822C7 13.3935 7 12.929 7 12V9.75H13.8105C13.483 10.0727 13.001 10.4563 12.297 11.0145L10.534 12.4123C10.2095 12.6697 10.155 13.1414 10.4123 13.466C10.6697 13.7905 11.1414 13.845 11.466 13.5877L13.2648 12.1614C13.9372 11.6282 14.4922 11.1883 14.8875 10.7945C15.2932 10.3904 15.6294 9.94184 15.7208 9.36867C15.7402 9.24656 15.75 9.12339 15.75 9C15.75 8.87661 15.7402 8.75344 15.7208 8.63133C15.6294 8.05816 15.2932 7.60962 14.8875 7.20551C14.4922 6.81172 13.9372 6.37175 13.2648 5.83857L11.466 4.41232ZM7 9.75L1 9.75C0.585787 9.75 0.25 9.41421 0.25 9C0.25 8.58579 0.585786 8.25 1 8.25L7 8.25V9.75Z" fill="#FAFAFA"/>
</svg>
